Coordinates
version=1
nRows=14
nColumns=40
inDegrees=yes

Units are S.I. units (second, meters, Newtons, ...)
Angles are in degrees.

endheader
time	pelvis_tilt	pelvis_list	pelvis_rotation	pelvis_tx	pelvis_ty	pelvis_tz	hip_flexion_r	hip_adduction_r	hip_rotation_r	knee_angle_r	knee_angle_r_beta	ankle_angle_r	subtalar_angle_r	mtp_angle_r	hip_flexion_l	hip_adduction_l	hip_rotation_l	knee_angle_l	knee_angle_l_beta	ankle_angle_l	subtalar_angle_l	mtp_angle_l	lumbar_extension	lumbar_bending	lumbar_rotation	arm_flex_r	arm_add_r	arm_rot_r	elbow_flex_r	pro_sup_r	wrist_flex_r	wrist_dev_r	arm_flex_l	arm_add_l	arm_rot_l	elbow_flex_l	pro_sup_l	wrist_flex_l	wrist_dev_l
     56.60000000	     -5.89837855	     -5.27764342	      0.76376254	      1.00981927	      0.92589910	      0.38605288	     30.25779508	     -4.07675626	     -8.19148837	     66.87327632	     66.87327632	      3.53813134	    -16.48124731	      2.29253216	     18.96821715	     -5.05110244	     -4.95231952	     24.57114120	     24.57114120	     13.97347764	     -8.30198093	     -2.11810390	     -6.45773776	      9.54971655	      1.61822160	     -0.72442061	    -12.87182492	     -3.99593176	     35.15066196	     46.08316139	      0.00000000	      0.00000000	     12.31208558	    -12.22015252	     -4.76650748	     64.80127178	     46.86220116	      0.00000000	      0.00000000
     56.61235714	     -5.41992619	     -4.53887181	      0.01269608	      1.00994462	      0.92829803	      0.38692405	     30.88355220	     -4.45342563	     -7.54100243	     65.47288002	     65.47288002	      3.68094942	    -16.25974351	      2.18568419	     16.84053542	     -4.32885204	     -5.69831421	     22.91313825	     22.91313825	     13.97237553	     -8.40244298	     -1.65771256	     -7.11209029	      8.71858514	      2.37264490	     -2.53956713	    -12.81479768	     -4.08308852	     33.42352859	     46.14283433	      0.00000000	      0.00000000	     13.33915792	    -12.32028914	     -5.21506815	     66.61653695	     46.93916438	      0.00000000	      0.00000000
     56.62471429	     -4.98919759	     -3.89462938	     -0.71101156	      1.01004341	      0.93047113	      0.38784062	     31.45656967	     -4.67734846	     -6.93891561	     63.86928487	     63.86928487	      3.70378966	    -16.18268707	      2.17205179	     14.78678177	     -3.67028770	     -6.43950635	     21.21218767	     21.21218767	     13.94746458	     -8.31374887	     -1.24001761	     -7.66525129	      7.95704905	      2.90601160	     -4.17647197	    -12.71178056	     -4.25618846	     31.83365646	     46.20563458	      0.00000000	      0.00000000	     14.15363896	    -12.46262494	     -5.65452166	     68.55696152	     47.01342461	      0.00000000	      0.00000000
     56.63707143	     -4.56482498	     -3.39993565	     -1.37887651	      1.01001804	      0.93233901	      0.38870826	     31.91048356	     -4.76635621	     -6.47720750	     62.04926670	     62.04926670	      3.71835847	    -15.96510001	      2.14508881	     12.86851769	     -3.10888541	     -7.01360315	     19.66089253	     19.66089253	     13.92940053	     -8.30982765	     -0.87837797	     -8.21167520	      7.36352701	      3.40080056	     -5.68520284	    -12.61742386	     -4.55116563	     30.09580163	     46.28585433	      0.00000000	      0.00000000	     14.88236228	    -12.61970778	     -6.16245346	     70.86853623	     47.09859160	      0.00000000	      0.00000000
     56.64942857	     -4.29287453	     -3.09716900	     -1.94865029	      1.00972218	      0.93366590	      0.38955225	     32.40242249	     -4.68968604	     -6.21472130	     59.99914903	     59.99914903	      3.73551726	    -15.70838076	      2.16223292	     11.32967617	     -2.73871370	     -7.43294299	     18.41055919	     18.41055919	     13.93995967	     -8.33228062	     -0.61124695	     -8.58428030	      6.99822420	      3.64931809	     -7.04867767	    -12.55139147	     -4.89718456	     28.52493654	     46.36634948	      0.00000000	      0.00000000	     15.51266234	    -12.90242307	     -6.71493784	     73.07705762	     47.18392460	      0.00000000	      0.00000000
     56.66178571	     -4.02748803	     -2.89589771	     -2.46902053	      1.00927941	      0.93473942	      0.39038085	     32.76774279	     -4.50768279	     -6.03382497	     57.69066988	     57.69066988	      3.72051286	    -15.37066494	      2.12509550	      9.85479248	     -2.44847895	     -7.75598737	     17.21280912	     17.21280912	     13.94737556	     -8.37330108	     -0.40293313	     -9.00514472	      6.69540084	      3.86592250	     -8.17401905	    -12.51077993	     -5.41770753	     26.83545844	     46.47053361	      0.00000000	      0.00000000	     15.95680819	    -13.00742571	     -7.35888565	     75.82951504	     47.28530324	      0.00000000	      0.00000000
     56.67414286	     -4.00448488	     -2.77274012	     -2.86210977	      1.00852607	      0.93501263	      0.39106184	     33.27511516	     -4.32144545	     -6.04721109	     55.13788894	     55.13788894	      3.38631739	    -15.05041343	      0.96883861	      8.91020195	     -2.23352075	     -7.80817060	     16.41277268	     16.41277268	     13.76441782	     -8.84530015	     -0.81884984	     -9.18664873	      6.47576853	      2.40849405	     -7.40927888	    -12.17138777	     -8.04787125	     23.33187454	     46.85938436	      0.00000000	      0.00000000	     14.60504643	    -13.92040442	     -9.63560467	     81.03997379	     47.56328366	      0.00000000	      0.00000000
     56.68650000	     -3.97743848	     -2.84815040	     -3.21563421	      1.00769678	      0.93522051	      0.39188475	     33.60587807	     -3.89642489	     -6.15266259	     52.30941452	     52.30941452	      3.43420098	    -14.46894777	      1.06685078	      8.03082522	     -2.30514265	     -8.08788052	     15.77796518	     15.77796518	     13.96651982	     -8.65111266	     -0.85246640	     -9.32990248	      6.54756994	      2.68686358	     -8.67916697	    -12.32481095	     -8.45380669	     22.53287000	     46.92170466	      0.00000000	      0.00000000	     15.51627110	    -13.85481664	    -10.10685094	     82.39034927	     47.63017917	      0.00000000	      0.00000000
     56.69885714	     -4.02866938	     -2.94253430	     -3.52552093	      1.00677140	      0.93502440	      0.39273370	     33.89772458	     -3.48386635	     -6.35409759	     49.28000319	     49.28000319	      3.47755446	    -13.70856744	      0.91464622	      7.34385259	     -2.41747407	     -8.39076273	     15.31993127	     15.31993127	     14.16787854	     -8.50140133	     -1.05085744	     -9.42716262	      6.60979922	      2.81418825	     -9.80944395	    -12.44937205	     -9.07543675	     21.96577018	     46.99675833	      0.00000000	      0.00000000	     16.13118952	    -13.91108853	    -10.62196081	     84.42506914	     47.71400536	      0.00000000	      0.00000000
     56.71121429	     -4.13614011	     -3.07464974	     -3.79499849	      1.00581491	      0.93456484	      0.39363448	     34.07765375	     -3.05037167	     -6.64092555	     45.99873536	     45.99873536	      3.39902410	    -12.75262627	      0.43041534	      6.78247732	     -2.59687625	     -8.69354620	     14.98139958	     14.98139958	     14.36260269	     -8.27344013	     -1.49193593	     -9.49246987	      6.70613163	      2.67974075	    -10.76878528	    -12.56327275	    -10.03780399	     21.70276762	     47.09301217	      0.00000000	      0.00000000	     16.39196383	    -14.08968871	    -11.28505469	     86.99615935	     47.82166785	      0.00000000	      0.00000000
     56.72357143	     -4.31193101	     -3.25038989	     -3.99366285	      1.00491577	      0.93387210	      0.39460875	     34.11116782	     -2.57001340	     -7.02190861	     42.42851842	     42.42851842	      3.01525489	    -11.81396692	     -0.72567462	      6.36657204	     -2.84282884	     -8.95027224	     14.77482548	     14.77482548	     14.48828186	     -8.08178995	     -2.29235442	     -9.46024507	      6.87308572	      2.10076314	    -11.35957818	    -12.66017728	    -12.00343353	     21.72143928	     47.27177128	      0.00000000	      0.00000000	     16.22334738	    -14.46190826	    -12.30111437	     89.53787723	     47.97456338	      0.00000000	      0.00000000
     56.73592857	     -4.44075833	     -3.39666570	     -4.20039121	      1.00420523	      0.93312264	      0.39570009	     33.97418706	     -2.11637348	     -7.41226138	     38.85647197	     38.85647197	      3.13088570	    -10.40017701	     -0.48578278	      5.88648974	     -3.03847954	     -9.10679966	     14.58313162	     14.58313162	     14.79232216	     -8.01695316	     -2.51851525	     -9.41158845	      6.97114806	      2.18844363	    -12.25682053	    -12.85404769	    -12.31513383	     21.46159528	     47.30251368	      0.00000000	      0.00000000	     16.86758872	    -14.46157149	    -12.43333576	     90.66485214	     48.01349827	      0.00000000	      0.00000000
     56.74828571	     -4.57630235	     -3.49919884	     -4.38046933	      1.00370444	      0.93223130	      0.39683917	     33.70976156	     -1.71285404	     -7.84406381	     35.28406337	     35.28406337	      3.18630038	     -8.91842436	     -0.10778021	      5.40238186	     -3.19155097	     -9.31039255	     14.39020276	     14.39020276	     15.10559798	     -7.89617657	     -2.79417491	     -9.31770315	      7.08556242	      2.19191838	    -13.03733238	    -12.99381046	    -12.58268855	     21.36215753	     47.32272270	      0.00000000	      0.00000000	     17.37843718	    -14.55944612	    -12.54655836	     91.85118696	     48.05311950	      0.00000000	      0.00000000
     56.76064286	     -4.60457272	     -3.50665647	     -4.55455685	      1.00355906	      0.93124265	      0.39811095	     33.25098271	     -1.46847284	     -8.41828580	     31.92331765	     31.92331765	      3.40171911	     -7.03001051	      0.38574691	      4.76134859	     -3.28330615	     -9.81785184	     14.16956970	     14.16956970	     15.39941945	     -7.27798960	     -3.52246386	     -9.38615181	      7.00396619	      2.04652344	    -13.82591562	    -13.06199947	    -13.52769702	     22.02669291	     47.36141880	      0.00000000	      0.00000000	     17.40560013	    -14.75449125	    -12.76564216	     94.06846971	     48.13758283	      0.00000000	      0.00000000
